# xmcd
#
# Track frame offsets:
#	150
#	17560
#	29812
#	52447
#	75435
#	89930
#	106722
#	120312
#	136542
#	150185
#	168455
#	182365
#	196825
#	211897
#
# Disc length: 3112 seconds
#
# Revision: 1
# Processed by: cddbd v1.5.1PL2 Copyright (c) Steve Scherf et al.
# Submitted via: dBpowerAMP V4.0
#
DISCID=aa0c260e
DTITLE=Various Artist - Hot Hits Dancin' Country Vol 3
DYEAR=1900
DGENRE=country
TTITLE0=Tractors - Baby Likes To Rock It
TTITLE1=Patty Loveless - I Try To Think About Elvis
TTITLE2=Joe Diffie - Third Rock From The Sun (Dance Mix)
TTITLE3=Tracy Byrd - Watermelon Crawl (Dance Mix)
TTITLE4=Alan Jackson - Summertime Blues
TTITLE5=Little Texas - Kick A Little
TTITLE6=Brooks and Dunn - Little Miss Honky Tonk
TTITLE7=George Strait - Adalida
TTITLE8=David Ball - Thinkin' Problem
TTITLE9=Diamond Rio - Bubba Hyde (Dance Mix)
TTITLE10=Vince Gill - What The Cowgirls Do
TTITLE11=Wade Hayes - Old Enough To Know Better
TTITLE12=David Lee Murphy - Party Crowd (Dance Mix)
TTITLE13=Mark Chesnutt - Goin' Through The Big D (Dance Mix)
EXTD=
EXTT0=
EXTT1=
EXTT2=
EXTT3=
EXTT4=
EXTT5=
EXTT6=
EXTT7=
EXTT8=
EXTT9=
EXTT10=
EXTT11=
EXTT12=
EXTT13=
PLAYORDER=
